<?xml version="1.0" encoding="UTF-8"?>
<!DOCTYPE svg PUBLIC "-//W3C//DTD SVG 1.1//EN" "http://www.w3.org/Graphics/SVG/1.1/DTD/svg11.dtd">
<svg version="1.2" width="30mm" height="20mm" viewBox="0 0 3000 2000" preserveAspectRatio="xMidYMid" fill-rule="evenodd" stroke-width="28.222" stroke-linejoin="round" xmlns="http://www.w3.org/2000/svg" xmlns:ooo="http://xml.openoffice.org/svg/export" xmlns:xlink="http://www.w3.org/1999/xlink" xmlns:presentation="http://sun.com/xmlns/staroffice/presentation" xmlns:smil="http://www.w3.org/2001/SMIL20/" xmlns:anim="urn:oasis:names:tc:opendocument:xmlns:animation:1.0" xmlns:svg="urn:oasis:names:tc:opendocument:xmlns:svg-compatible:1.0" xml:space="preserve">
 <defs class="ClipPathGroup">
  <clipPath id="presentation_clip_path" clipPathUnits="userSpaceOnUse">
   <rect x="0" y="0" width="3000" height="2000"/>
  </clipPath>
  <clipPath id="presentation_clip_path_shrink" clipPathUnits="userSpaceOnUse">
   <rect x="3" y="2" width="2994" height="1996"/>
  </clipPath>
 </defs>
 <defs class="TextShapeIndex">
  <g ooo:slide="id1" ooo:id-list="id3 id4 id5 id6 id7"/>
 </defs>
 <defs class="EmbeddedBulletChars">
  <g id="bullet-char-template-57356" transform="scale(0.00048828125,-0.00048828125)">
   <path d="M 580,1141 L 1163,571 580,0 -4,571 580,1141 Z"/>
  </g>
  <g id="bullet-char-template-57354" transform="scale(0.00048828125,-0.00048828125)">
   <path d="M 8,1128 L 1137,1128 1137,0 8,0 8,1128 Z"/>
  </g>
  <g id="bullet-char-template-10146" transform="scale(0.00048828125,-0.00048828125)">
   <path d="M 174,0 L 602,739 174,1481 1456,739 174,0 Z M 1358,739 L 309,1346 659,739 1358,739 Z"/>
  </g>
  <g id="bullet-char-template-10132" transform="scale(0.00048828125,-0.00048828125)">
   <path d="M 2015,739 L 1276,0 717,0 1260,543 174,543 174,936 1260,936 717,1481 1274,1481 2015,739 Z"/>
  </g>
  <g id="bullet-char-template-10007" transform="scale(0.00048828125,-0.00048828125)">
   <path d="M 0,-2 C -7,14 -16,27 -25,37 L 356,567 C 262,823 215,952 215,954 215,979 228,992 255,992 264,992 276,990 289,987 310,991 331,999 354,1012 L 381,999 492,748 772,1049 836,1024 860,1049 C 881,1039 901,1025 922,1006 886,937 835,863 770,784 769,783 710,716 594,584 L 774,223 C 774,196 753,168 711,139 L 727,119 C 717,90 699,76 672,76 641,76 570,178 457,381 L 164,-76 C 142,-110 111,-127 72,-127 30,-127 9,-110 8,-76 1,-67 -2,-52 -2,-32 -2,-23 -1,-13 0,-2 Z"/>
  </g>
  <g id="bullet-char-template-10004" transform="scale(0.00048828125,-0.00048828125)">
   <path d="M 285,-33 C 182,-33 111,30 74,156 52,228 41,333 41,471 41,549 55,616 82,672 116,743 169,778 240,778 293,778 328,747 346,684 L 369,508 C 377,444 397,411 428,410 L 1163,1116 C 1174,1127 1196,1133 1229,1133 1271,1133 1292,1118 1292,1087 L 1292,965 C 1292,929 1282,901 1262,881 L 442,47 C 390,-6 338,-33 285,-33 Z"/>
  </g>
  <g id="bullet-char-template-9679" transform="scale(0.00048828125,-0.00048828125)">
   <path d="M 813,0 C 632,0 489,54 383,161 276,268 223,411 223,592 223,773 276,916 383,1023 489,1130 632,1184 813,1184 992,1184 1136,1130 1245,1023 1353,916 1407,772 1407,592 1407,412 1353,268 1245,161 1136,54 992,0 813,0 Z"/>
  </g>
  <g id="bullet-char-template-8226" transform="scale(0.00048828125,-0.00048828125)">
   <path d="M 346,457 C 273,457 209,483 155,535 101,586 74,649 74,723 74,796 101,859 155,911 209,963 273,989 346,989 419,989 480,963 531,910 582,859 608,796 608,723 608,648 583,586 532,535 482,483 420,457 346,457 Z"/>
  </g>
  <g id="bullet-char-template-8211" transform="scale(0.00048828125,-0.00048828125)">
   <path d="M -4,459 L 1135,459 1135,606 -4,606 -4,459 Z"/>
  </g>
  <g id="bullet-char-template-61548" transform="scale(0.00048828125,-0.00048828125)">
   <path d="M 173,740 C 173,903 231,1043 346,1159 462,1274 601,1332 765,1332 928,1332 1067,1274 1183,1159 1299,1043 1357,903 1357,740 1357,577 1299,437 1183,322 1067,206 928,148 765,148 601,148 462,206 346,322 231,437 173,577 173,740 Z"/>
  </g>
 </defs>
 <g>
  <g id="id2" class="Master_Slide">
   <g id="bg-id2" class="Background"/>
   <g id="bo-id2" class="BackgroundObjects"/>
  </g>
 </g>
 <g class="SlideGroup">
  <g>
   <g id="container-id1">
    <g id="id1" class="Slide" clip-path="url(#presentation_clip_path)">
     <g class="Page">
      <g class="Group">
       <g class="com.sun.star.drawing.CustomShape">
        <g id="id3">
         <rect class="BoundingBox" stroke="none" fill="none" x="98" y="-8" width="2465" height="2008"/>
         <path fill="rgb(255,255,0)" stroke="none" d="M 2509,996 C 2509,1162 2455,1326 2351,1471 2248,1615 2099,1735 1920,1819 1740,1902 1537,1946 1330,1946 1123,1946 920,1902 741,1819 561,1735 412,1615 309,1471 205,1326 151,1162 151,996 151,829 205,665 309,520 412,376 561,256 740,172 920,89 1123,45 1330,45 1537,45 1740,89 1919,172 2099,256 2248,376 2351,520 2455,665 2509,829 2509,995 L 2509,996 Z"/>
         <path fill="none" stroke="rgb(0,0,0)" stroke-width="106" stroke-linejoin="round" d="M 2509,996 C 2509,1162 2455,1326 2351,1471 2248,1615 2099,1735 1920,1819 1740,1902 1537,1946 1330,1946 1123,1946 920,1902 741,1819 561,1735 412,1615 309,1471 205,1326 151,1162 151,996 151,829 205,665 309,520 412,376 561,256 740,172 920,89 1123,45 1330,45 1537,45 1740,89 1919,172 2099,256 2248,376 2351,520 2455,665 2509,829 2509,995 L 2509,996 Z"/>
        </g>
       </g>
       <g class="com.sun.star.drawing.CustomShape">
        <g id="id4">
         <rect class="BoundingBox" stroke="none" fill="none" x="1652" y="232" width="954" height="1097"/>
         <path fill="rgb(255,255,255)" stroke="none" d="M 2352,1238 C 2289,1270 2217,1281 2143,1269 2068,1258 1995,1223 1929,1170 1864,1117 1809,1046 1770,966 1730,886 1708,798 1706,712 1704,626 1721,545 1756,476 1791,408 1842,354 1906,322 1969,289 2041,278 2115,290 2189,302 2263,336 2328,389 2394,443 2449,513 2488,593 2527,674 2549,761 2551,847 2554,933 2537,1015 2502,1083 2467,1152 2415,1205 2352,1238 L 2352,1238 Z"/>
         <path fill="none" stroke="rgb(0,0,0)" stroke-width="106" stroke-linejoin="round" d="M 2352,1238 C 2289,1270 2217,1281 2143,1269 2068,1258 1995,1223 1929,1170 1864,1117 1809,1046 1770,966 1730,886 1708,798 1706,712 1704,626 1721,545 1756,476 1791,408 1842,354 1906,322 1969,289 2041,278 2115,290 2189,302 2263,336 2328,389 2394,443 2449,513 2488,593 2527,674 2549,761 2551,847 2554,933 2537,1015 2502,1083 2467,1152 2415,1205 2352,1238 L 2352,1238 Z"/>
        </g>
       </g>
       <g class="com.sun.star.drawing.CustomShape">
        <g id="id5">
         <rect class="BoundingBox" stroke="none" fill="none" x="2266" y="623" width="129" height="270"/>
         <path fill="rgb(0,0,0)" stroke="none" d="M 2330,623 L 2330,623 C 2319,623 2308,626 2298,632 2288,637 2280,645 2275,655 2269,665 2266,676 2266,687 L 2266,828 2266,828 C 2266,839 2269,850 2275,860 2280,870 2288,878 2298,883 2308,889 2319,892 2330,892 L 2330,892 2330,892 C 2341,892 2352,889 2362,883 2372,878 2380,870 2385,860 2391,850 2394,839 2394,828 L 2394,687 2394,687 2394,687 C 2394,676 2391,665 2385,655 2380,645 2372,637 2362,632 2352,626 2341,623 2330,623 L 2330,623 Z"/>
        </g>
       </g>
       <g class="com.sun.star.drawing.CustomShape">
        <g id="id6">
         <rect class="BoundingBox" stroke="none" fill="none" x="-4" y="625" width="1134" height="951"/>
         <path fill="rgb(255,255,0)" stroke="none" d="M 1076,1100 L 1076,1100 C 1076,1174 1052,1247 1007,1311 962,1375 897,1428 819,1465 741,1503 653,1522 563,1522 L 563,1522 563,1522 C 472,1522 384,1503 306,1465 228,1428 163,1375 118,1311 73,1247 49,1174 49,1100 L 49,678 1076,678 1076,1100 Z"/>
         <path fill="none" stroke="rgb(0,0,0)" stroke-width="106" stroke-linejoin="round" d="M 1076,1100 L 1076,1100 C 1076,1174 1052,1247 1007,1311 962,1375 897,1428 819,1465 741,1503 653,1522 563,1522 L 563,1522 563,1522 C 472,1522 384,1503 306,1465 228,1428 163,1375 118,1311 73,1247 49,1174 49,1100 L 49,678 1076,678 1076,1100 Z"/>
        </g>
       </g>
       <g class="com.sun.star.drawing.PolyPolygonShape">
        <g id="id7">
         <rect class="BoundingBox" stroke="none" fill="none" x="1558" y="1142" width="1446" height="635"/>
         <path fill="rgb(255,134,13)" stroke="none" d="M 2950,1195 L 1745,1195 1611,1459 1745,1723 2816,1723 2816,1459 2013,1459 2816,1459 2950,1327 2950,1195 Z"/>
         <path fill="none" stroke="rgb(0,0,0)" stroke-width="106" stroke-linejoin="round" d="M 2950,1195 L 1745,1195 1611,1459 1745,1723 2816,1723 2816,1459 2013,1459 2816,1459 2950,1327 2950,1195 Z"/>
        </g>
       </g>
      </g>
     </g>
    </g>
   </g>
  </g>
 </g>
</svg>