<svg version="1.1" viewBox="0.0 0.0 113.0 113.0" fill="none" stroke="none" stroke-linecap="square" stroke-miterlimit="10" xmlns:xlink="http://www.w3.org/1999/xlink" xmlns="http://www.w3.org/2000/svg"><clipPath id="p.0"><path d="m0 0l113.0 0l0 113.0l-113.0 0l0 -113.0z" clip-rule="nonzero"/></clipPath><g clip-path="url(#p.0)"><path fill="#000000" fill-opacity="0.0" d="m0 0l113.0 0l0 113.0l-113.0 0z" fill-rule="evenodd"/><path fill="#e69138" d="m55.56168 112.97244l-39.086617 -33.981514l0 -44.981857l39.086617 -33.981514z" fill-rule="evenodd"/><path fill="#e69138" d="m0 33.53937l17.952755 0l0 45.92126l-17.952755 0z" fill-rule="evenodd"/><path fill="#e69138" d="m64.05249 25.918634l0 0c8.062492 0 14.598427 13.692331 14.598427 30.582678c0 16.890343 -6.5359344 30.58268 -14.598427 30.58268l0 -7.299217c4.03125 0 7.299217 -10.424362 7.299217 -23.283463c0 -12.859104 -3.2679672 -23.283466 -7.299217 -23.283466z" fill-rule="evenodd"/><path fill="#e69138" d="m81.47769 13.745407c8.332108 0 15.0866165 19.142471 15.0866165 42.755905c0 23.613434 -6.754509 42.755905 -15.0866165 42.755905l0 -7.5433044l0 0c4.166054 0 7.5433044 -15.765221 7.5433044 -35.2126c0 -19.44738 -3.3772507 -35.2126 -7.5433044 -35.2126z" fill-rule="evenodd"/><path fill="#e69138" d="m99.99213 1.5725199l0 0c4.740631 0 9.105888 10.890548 11.393364 28.424433c2.2874756 17.533886 2.1349106 38.93437 -0.39819336 55.85545c-2.5330963 16.92109 -7.0455856 26.68309 -11.777634 25.47892l0.10837555 -7.5943146c2.085495 2.1075516 4.137924 -5.6884155 5.3296204 -20.244087c1.1916962 -14.555672 1.3261795 -33.471233 0.3492279 -49.11878c-0.9769592 -15.647545 -2.9042816 -25.447231 -5.0047607 -25.447231z" fill-rule="evenodd"/></g></svg>