<svg version="1.1" viewBox="0.0 0.0 113.0 113.0" fill="none" stroke="none" stroke-linecap="square" stroke-miterlimit="10" xmlns:xlink="http://www.w3.org/1999/xlink" xmlns="http://www.w3.org/2000/svg"><clipPath id="p.0"><path d="m0 0l113.0 0l0 113.0l-113.0 0l0 -113.0z" clip-rule="nonzero"/></clipPath><g clip-path="url(#p.0)"><path fill="#000000" fill-opacity="0.0" d="m0 0l113.0 0l0 113.0l-113.0 0z" fill-rule="evenodd"/><path fill="#e69138" d="m-1.007874 0l64.348785 0l0 0c27.430305 0 49.66696 22.236656 49.66696 49.66696l0 0l0 0c0 13.172497 -5.23275 25.805481 -14.547119 35.119843c-9.314362 9.314362 -21.947342 14.547119 -35.119843 14.547119l-25.340729 0l0 13.67395l-39.008057 -28.251968l39.008057 -28.251968l0 13.67395l25.340729 0c11.327873 0 20.510933 -9.183052 20.510933 -20.510925l0 0l0 0c0 -11.327873 -9.18306 -20.510931 -20.510933 -20.510931l-64.348785 0z" fill-rule="evenodd"/></g></svg>